<svg viewBox="0 0 1834 1808" width="1834" height="1808" role="img" aria-labelledby="general-b-t general-b-d" xmlns="http://www.w3.org/2000/svg">
<title id="general-b-t">Modelo de procesos — participación por Rol</title>
<desc id="general-b-d">Una fila por Rol y una columna por Fase; cada Tarea en el carril de quien la ejecuta y en el de quien asiste.</desc>
<defs><marker id="punta" markerWidth="9" markerHeight="7" refX="8" refY="3.5" orient="auto"><polygon points="0 0, 9 3.5, 0 7" fill="#6f6f8c"/></marker></defs>
<rect width="100%" height="100%" fill="#ffffff"/>
<text x="48" y="44" fill="#6f6f8c" font-size="8" font-weight="400" font-family="'Geist Mono', monospace" text-anchor="start" letter-spacing="0.14em">MODELO DE PROCESOS — SPEM 2.0</text>
<text x="48" y="82" fill="#3a3a44" font-size="28" font-weight="400" font-family="'Instrument Serif', Georgia, serif" text-anchor="start">Participación de todo el equipo</text>
<text x="48" y="106" fill="#6f6f8c" font-size="11" font-weight="400" font-family="Geist, sans-serif" text-anchor="start">Sistema de riego autónomo guiado por drones para caficultura — las cuatro Fases y los siete Roles.</text>
<text x="48" y="124" fill="#6f6f8c" font-size="10" font-weight="400" font-family="Geist, sans-serif" text-anchor="start">Una fila por Rol, una columna por Fase: cada Tarea aparece en el carril de quien la ejecuta y de quien asiste.</text>
<rect x="298" y="150" width="364" height="40" rx="6" fill="#faf7f0" stroke="#c8964b"/>
<text x="312" y="166" fill="#6f6f8c" font-size="8" font-weight="400" font-family="'Geist Mono', monospace" text-anchor="start" letter-spacing="0.14em">FASE 1</text>
<text x="312" y="182" fill="#3a3a44" font-size="10.5" font-weight="600" font-family="Geist, sans-serif" text-anchor="start">Especificación global de nivel cero</text>
<line x1="662" y1="170" x2="670" y2="170" stroke="#6f6f8c" marker-end="url(#punta)"/>
<rect x="670" y="150" width="364" height="40" rx="6" fill="#faf7f0" stroke="#c8964b"/>
<text x="684" y="166" fill="#6f6f8c" font-size="8" font-weight="400" font-family="'Geist Mono', monospace" text-anchor="start" letter-spacing="0.14em">FASE 2</text>
<text x="684" y="182" fill="#3a3a44" font-size="10.5" font-weight="600" font-family="Geist, sans-serif" text-anchor="start">Descomposición en dominios</text>
<line x1="1034" y1="170" x2="1042" y2="170" stroke="#6f6f8c" marker-end="url(#punta)"/>
<rect x="1042" y="150" width="364" height="40" rx="6" fill="#faf7f0" stroke="#c8964b"/>
<text x="1056" y="166" fill="#6f6f8c" font-size="8" font-weight="400" font-family="'Geist Mono', monospace" text-anchor="start" letter-spacing="0.14em">FASE 3</text>
<text x="1056" y="182" fill="#3a3a44" font-size="10.5" font-weight="600" font-family="Geist, sans-serif" text-anchor="start">Esqueleto funcional mínimo</text>
<line x1="1406" y1="170" x2="1414" y2="170" stroke="#6f6f8c" marker-end="url(#punta)"/>
<rect x="1414" y="150" width="364" height="40" rx="6" fill="#faf7f0" stroke="#c8964b"/>
<text x="1428" y="166" fill="#6f6f8c" font-size="8" font-weight="400" font-family="'Geist Mono', monospace" text-anchor="start" letter-spacing="0.14em">FASE 4</text>
<text x="1428" y="182" fill="#3a3a44" font-size="10.5" font-weight="600" font-family="Geist, sans-serif" text-anchor="start">Ciclo de crecimiento</text>
<text x="48" y="166" fill="#6f6f8c" font-size="8" font-weight="400" font-family="'Geist Mono', monospace" text-anchor="start" letter-spacing="0.14em">ROLES</text>
<rect x="48" y="196" width="1738" height="134" fill="#fbfaf7"/>
<line x1="48" y1="196" x2="1786" y2="196" stroke="#d9d9e0"/>
<ellipse cx="62" cy="218" rx="8" ry="6" fill="#fbe3b8" stroke="#c8964b"/>
<path d="M52 236 a10 8 0 0 1 20 0 z" fill="#fbe3b8" stroke="#c8964b"/>
<text x="82" y="220" fill="#8a5a20" font-size="10" font-weight="600" font-family="Geist, sans-serif" text-anchor="start">Gerente de proyecto</text>
<rect x="298" y="204" width="348" height="34" rx="6" fill="#fbe3b8" stroke="#c8964b" stroke-width="1.2"/>
<text x="310" y="218" fill="#6f6f8c" font-size="7.5" font-weight="400" font-family="'Geist Mono', monospace" text-anchor="start">«performs, primary»</text>
<text x="310" y="230" fill="#8a5a20" font-size="9.5" font-weight="600" font-family="Geist, sans-serif" text-anchor="start">Definir Constitución, reglas y contratos globales</text>
<rect x="298" y="246" width="348" height="34" rx="6" fill="#ffffff" stroke="#c8964b" stroke-width="1" stroke-dasharray="4 3"/>
<text x="310" y="260" fill="#6f6f8c" font-size="7.5" font-weight="400" font-family="'Geist Mono', monospace" text-anchor="start">«assists»</text>
<text x="310" y="272" fill="#8a5a20" font-size="9.5" font-weight="400" font-family="Geist, sans-serif" text-anchor="start">Definir restricciones de seguridad de vuelo y normativas</text>
<rect x="670" y="204" width="348" height="34" rx="6" fill="#fbe3b8" stroke="#c8964b" stroke-width="1.2"/>
<text x="682" y="218" fill="#6f6f8c" font-size="7.5" font-weight="400" font-family="'Geist Mono', monospace" text-anchor="start">«performs, primary»</text>
<text x="682" y="230" fill="#8a5a20" font-size="9.5" font-weight="600" font-family="Geist, sans-serif" text-anchor="start">Identificar subdominios y definir subcontratos internos</text>
<rect x="670" y="246" width="348" height="34" rx="6" fill="#fbe3b8" stroke="#c8964b" stroke-width="1.2"/>
<text x="682" y="260" fill="#6f6f8c" font-size="7.5" font-weight="400" font-family="'Geist Mono', monospace" text-anchor="start">«performs, primary»</text>
<text x="682" y="272" fill="#8a5a20" font-size="9.5" font-weight="600" font-family="Geist, sans-serif" text-anchor="start">Seleccionar escenario piloto</text>
<rect x="1042" y="204" width="348" height="34" rx="6" fill="#ffffff" stroke="#c8964b" stroke-width="1" stroke-dasharray="4 3"/>
<text x="1054" y="218" fill="#6f6f8c" font-size="7.5" font-weight="400" font-family="'Geist Mono', monospace" text-anchor="start">«assists»</text>
<text x="1054" y="230" fill="#8a5a20" font-size="9.5" font-weight="400" font-family="Geist, sans-serif" text-anchor="start">Validar reglas de negocio y condiciones agronómicas</text>
<rect x="1414" y="204" width="348" height="34" rx="6" fill="#fbe3b8" stroke="#c8964b" stroke-width="1.2"/>
<text x="1426" y="218" fill="#6f6f8c" font-size="7.5" font-weight="400" font-family="'Geist Mono', monospace" text-anchor="start">«performs, primary»</text>
<text x="1426" y="230" fill="#8a5a20" font-size="9.5" font-weight="600" font-family="Geist, sans-serif" text-anchor="start">Sincronización inter dominio</text>
<rect x="1414" y="246" width="348" height="34" rx="6" fill="#fbe3b8" stroke="#c8964b" stroke-width="1.2"/>
<text x="1426" y="260" fill="#6f6f8c" font-size="7.5" font-weight="400" font-family="'Geist Mono', monospace" text-anchor="start">«performs, primary»</text>
<text x="1426" y="272" fill="#8a5a20" font-size="9.5" font-weight="600" font-family="Geist, sans-serif" text-anchor="start">Auditoría de cumplimiento de las especificaciones</text>
<rect x="1414" y="288" width="348" height="34" rx="6" fill="#ffffff" stroke="#c8964b" stroke-width="1" stroke-dasharray="4 3"/>
<text x="1426" y="302" fill="#6f6f8c" font-size="7.5" font-weight="400" font-family="'Geist Mono', monospace" text-anchor="start">«assists»</text>
<text x="1426" y="314" fill="#8a5a20" font-size="9.5" font-weight="400" font-family="Geist, sans-serif" text-anchor="start">Review del incremento con el caficultor</text>
<line x1="48" y1="330" x2="1786" y2="330" stroke="#d9d9e0"/>
<ellipse cx="62" cy="352" rx="8" ry="6" fill="#fbe3b8" stroke="#c8964b"/>
<path d="M52 370 a10 8 0 0 1 20 0 z" fill="#fbe3b8" stroke="#c8964b"/>
<text x="82" y="354" fill="#8a5a20" font-size="10" font-weight="600" font-family="Geist, sans-serif" text-anchor="start">Experto del dominio (caficultor)</text>
<rect x="298" y="338" width="348" height="34" rx="6" fill="#ffffff" stroke="#c8964b" stroke-width="1" stroke-dasharray="4 3"/>
<text x="310" y="352" fill="#6f6f8c" font-size="7.5" font-weight="400" font-family="'Geist Mono', monospace" text-anchor="start">«assists»</text>
<text x="310" y="364" fill="#8a5a20" font-size="9.5" font-weight="400" font-family="Geist, sans-serif" text-anchor="start">Definir Constitución, reglas y contratos globales</text>
<rect x="298" y="380" width="348" height="34" rx="6" fill="#fbe3b8" stroke="#c8964b" stroke-width="1.2"/>
<text x="310" y="394" fill="#6f6f8c" font-size="7.5" font-weight="400" font-family="'Geist Mono', monospace" text-anchor="start">«performs, primary»</text>
<text x="310" y="406" fill="#8a5a20" font-size="9.5" font-weight="600" font-family="Geist, sans-serif" text-anchor="start">Capturar y modelar el conocimiento inicial del dominio</text>
<rect x="1042" y="338" width="348" height="34" rx="6" fill="#fbe3b8" stroke="#c8964b" stroke-width="1.2"/>
<text x="1054" y="352" fill="#6f6f8c" font-size="7.5" font-weight="400" font-family="'Geist Mono', monospace" text-anchor="start">«performs, primary»</text>
<text x="1054" y="364" fill="#8a5a20" font-size="9.5" font-weight="600" font-family="Geist, sans-serif" text-anchor="start">Validar reglas de negocio y condiciones agronómicas</text>
<rect x="1414" y="338" width="348" height="34" rx="6" fill="#fbe3b8" stroke="#c8964b" stroke-width="1.2"/>
<text x="1426" y="352" fill="#6f6f8c" font-size="7.5" font-weight="400" font-family="'Geist Mono', monospace" text-anchor="start">«performs, primary»</text>
<text x="1426" y="364" fill="#8a5a20" font-size="9.5" font-weight="600" font-family="Geist, sans-serif" text-anchor="start">Elaboración y actualización del manual de operación</text>
<rect x="1414" y="380" width="348" height="34" rx="6" fill="#fbe3b8" stroke="#c8964b" stroke-width="1.2"/>
<text x="1426" y="394" fill="#6f6f8c" font-size="7.5" font-weight="400" font-family="'Geist Mono', monospace" text-anchor="start">«performs, primary»</text>
<text x="1426" y="406" fill="#8a5a20" font-size="9.5" font-weight="600" font-family="Geist, sans-serif" text-anchor="start">Review del incremento con el caficultor</text>
<rect x="48" y="422" width="1738" height="56" fill="#fbfaf7"/>
<line x1="48" y1="422" x2="1786" y2="422" stroke="#d9d9e0"/>
<ellipse cx="62" cy="444" rx="8" ry="6" fill="#fbe3b8" stroke="#c8964b"/>
<path d="M52 462 a10 8 0 0 1 20 0 z" fill="#fbe3b8" stroke="#c8964b"/>
<text x="82" y="446" fill="#8a5a20" font-size="10" font-weight="600" font-family="Geist, sans-serif" text-anchor="start">Ingeniero de seguridad de vuelo</text>
<rect x="298" y="430" width="348" height="34" rx="6" fill="#fbe3b8" stroke="#c8964b" stroke-width="1.2"/>
<text x="310" y="444" fill="#6f6f8c" font-size="7.5" font-weight="400" font-family="'Geist Mono', monospace" text-anchor="start">«performs, primary»</text>
<text x="310" y="456" fill="#8a5a20" font-size="9.5" font-weight="600" font-family="Geist, sans-serif" text-anchor="start">Definir restricciones de seguridad de vuelo y normativas</text>
<line x1="48" y1="478" x2="1786" y2="478" stroke="#d9d9e0"/>
<ellipse cx="62" cy="500" rx="8" ry="6" fill="#fbe3b8" stroke="#c8964b"/>
<path d="M52 518 a10 8 0 0 1 20 0 z" fill="#fbe3b8" stroke="#c8964b"/>
<text x="82" y="502" fill="#8a5a20" font-size="10" font-weight="600" font-family="Geist, sans-serif" text-anchor="start">Ingeniero de datos</text>
<rect x="298" y="486" width="348" height="34" rx="6" fill="#ffffff" stroke="#c8964b" stroke-width="1" stroke-dasharray="4 3"/>
<text x="310" y="500" fill="#6f6f8c" font-size="7.5" font-weight="400" font-family="'Geist Mono', monospace" text-anchor="start">«assists»</text>
<text x="310" y="512" fill="#8a5a20" font-size="9.5" font-weight="400" font-family="Geist, sans-serif" text-anchor="start">Definir Constitución, reglas y contratos globales</text>
<rect x="298" y="528" width="348" height="34" rx="6" fill="#ffffff" stroke="#c8964b" stroke-width="1" stroke-dasharray="4 3"/>
<text x="310" y="542" fill="#6f6f8c" font-size="7.5" font-weight="400" font-family="'Geist Mono', monospace" text-anchor="start">«assists»</text>
<text x="310" y="554" fill="#8a5a20" font-size="9.5" font-weight="400" font-family="Geist, sans-serif" text-anchor="start">Capturar y modelar el conocimiento inicial del dominio</text>
<rect x="670" y="486" width="348" height="34" rx="6" fill="#ffffff" stroke="#c8964b" stroke-width="1" stroke-dasharray="4 3"/>
<text x="682" y="500" fill="#6f6f8c" font-size="7.5" font-weight="400" font-family="'Geist Mono', monospace" text-anchor="start">«assists»</text>
<text x="682" y="512" fill="#8a5a20" font-size="9.5" font-weight="400" font-family="Geist, sans-serif" text-anchor="start">Seleccionar escenario piloto</text>
<rect x="670" y="528" width="348" height="44" rx="6" fill="#ffffff" stroke="#c8964b" stroke-width="1" stroke-dasharray="4 3"/>
<text x="682" y="542" fill="#6f6f8c" font-size="7.5" font-weight="400" font-family="'Geist Mono', monospace" text-anchor="start">«assists»</text>
<text x="682" y="554" fill="#8a5a20" font-size="9.5" font-weight="400" font-family="Geist, sans-serif" text-anchor="start">Traducir esquemas técnicos y disponer entornos SIL, HIL y</text>
<text x="682" y="566" fill="#8a5a20" font-size="9.5" font-weight="400" font-family="Geist, sans-serif" text-anchor="start">gemelos digitales</text>
<rect x="1042" y="486" width="348" height="34" rx="6" fill="#ffffff" stroke="#c8964b" stroke-width="1" stroke-dasharray="4 3"/>
<text x="1054" y="500" fill="#6f6f8c" font-size="7.5" font-weight="400" font-family="'Geist Mono', monospace" text-anchor="start">«assists»</text>
<text x="1054" y="512" fill="#8a5a20" font-size="9.5" font-weight="400" font-family="Geist, sans-serif" text-anchor="start">Construir prototipo vertical</text>
<rect x="1414" y="486" width="348" height="34" rx="6" fill="#ffffff" stroke="#c8964b" stroke-width="1" stroke-dasharray="4 3"/>
<text x="1426" y="500" fill="#6f6f8c" font-size="7.5" font-weight="400" font-family="'Geist Mono', monospace" text-anchor="start">«assists»</text>
<text x="1426" y="512" fill="#8a5a20" font-size="9.5" font-weight="400" font-family="Geist, sans-serif" text-anchor="start">Construcción en paralelo (contrato primero)</text>
<rect x="48" y="580" width="1738" height="176" fill="#fbfaf7"/>
<line x1="48" y1="580" x2="1786" y2="580" stroke="#d9d9e0"/>
<ellipse cx="62" cy="602" rx="8" ry="6" fill="#fbe3b8" stroke="#c8964b"/>
<path d="M52 620 a10 8 0 0 1 20 0 z" fill="#fbe3b8" stroke="#c8964b"/>
<text x="82" y="604" fill="#8a5a20" font-size="10" font-weight="600" font-family="Geist, sans-serif" text-anchor="start">Ingeniero de software de adaptación</text>
<rect x="670" y="588" width="348" height="34" rx="6" fill="#ffffff" stroke="#c8964b" stroke-width="1" stroke-dasharray="4 3"/>
<text x="682" y="602" fill="#6f6f8c" font-size="7.5" font-weight="400" font-family="'Geist Mono', monospace" text-anchor="start">«assists»</text>
<text x="682" y="614" fill="#8a5a20" font-size="9.5" font-weight="400" font-family="Geist, sans-serif" text-anchor="start">Identificar subdominios y definir subcontratos internos</text>
<rect x="670" y="630" width="348" height="34" rx="6" fill="#fbe3b8" stroke="#c8964b" stroke-width="1.2"/>
<text x="682" y="644" fill="#6f6f8c" font-size="7.5" font-weight="400" font-family="'Geist Mono', monospace" text-anchor="start">«performs, primary»</text>
<text x="682" y="656" fill="#8a5a20" font-size="9.5" font-weight="600" font-family="Geist, sans-serif" text-anchor="start">Diseñar el modelo de arquitectura preliminar</text>
<rect x="670" y="672" width="348" height="44" rx="6" fill="#ffffff" stroke="#c8964b" stroke-width="1" stroke-dasharray="4 3"/>
<text x="682" y="686" fill="#6f6f8c" font-size="7.5" font-weight="400" font-family="'Geist Mono', monospace" text-anchor="start">«assists»</text>
<text x="682" y="698" fill="#8a5a20" font-size="9.5" font-weight="400" font-family="Geist, sans-serif" text-anchor="start">Planificar la estrategia de calibración de sensores y</text>
<text x="682" y="710" fill="#8a5a20" font-size="9.5" font-weight="400" font-family="Geist, sans-serif" text-anchor="start">actuadores</text>
<rect x="1042" y="588" width="348" height="34" rx="6" fill="#fbe3b8" stroke="#c8964b" stroke-width="1.2"/>
<text x="1054" y="602" fill="#6f6f8c" font-size="7.5" font-weight="400" font-family="'Geist Mono', monospace" text-anchor="start">«performs, primary»</text>
<text x="1054" y="614" fill="#8a5a20" font-size="9.5" font-weight="600" font-family="Geist, sans-serif" text-anchor="start">Construir prototipo vertical</text>
<rect x="1042" y="630" width="348" height="34" rx="6" fill="#fbe3b8" stroke="#c8964b" stroke-width="1.2"/>
<text x="1054" y="644" fill="#6f6f8c" font-size="7.5" font-weight="400" font-family="'Geist Mono', monospace" text-anchor="start">«performs, primary»</text>
<text x="1054" y="656" fill="#8a5a20" font-size="9.5" font-weight="600" font-family="Geist, sans-serif" text-anchor="start">Establecer el pipeline de CI/CD base</text>
<rect x="1414" y="588" width="348" height="34" rx="6" fill="#ffffff" stroke="#c8964b" stroke-width="1" stroke-dasharray="4 3"/>
<text x="1426" y="602" fill="#6f6f8c" font-size="7.5" font-weight="400" font-family="'Geist Mono', monospace" text-anchor="start">«assists»</text>
<text x="1426" y="614" fill="#8a5a20" font-size="9.5" font-weight="400" font-family="Geist, sans-serif" text-anchor="start">Sincronización inter dominio</text>
<rect x="1414" y="630" width="348" height="34" rx="6" fill="#fbe3b8" stroke="#c8964b" stroke-width="1.2"/>
<text x="1426" y="644" fill="#6f6f8c" font-size="7.5" font-weight="400" font-family="'Geist Mono', monospace" text-anchor="start">«performs, primary»</text>
<text x="1426" y="656" fill="#8a5a20" font-size="9.5" font-weight="600" font-family="Geist, sans-serif" text-anchor="start">Construcción en paralelo (contrato primero)</text>
<rect x="1414" y="672" width="348" height="34" rx="6" fill="#ffffff" stroke="#c8964b" stroke-width="1" stroke-dasharray="4 3"/>
<text x="1426" y="686" fill="#6f6f8c" font-size="7.5" font-weight="400" font-family="'Geist Mono', monospace" text-anchor="start">«assists»</text>
<text x="1426" y="698" fill="#8a5a20" font-size="9.5" font-weight="400" font-family="Geist, sans-serif" text-anchor="start">Despliegue en campo</text>
<rect x="1414" y="714" width="348" height="34" rx="6" fill="#ffffff" stroke="#c8964b" stroke-width="1" stroke-dasharray="4 3"/>
<text x="1426" y="728" fill="#6f6f8c" font-size="7.5" font-weight="400" font-family="'Geist Mono', monospace" text-anchor="start">«assists»</text>
<text x="1426" y="740" fill="#8a5a20" font-size="9.5" font-weight="400" font-family="Geist, sans-serif" text-anchor="start">Elaboración y actualización del manual de operación</text>
<line x1="48" y1="756" x2="1786" y2="756" stroke="#d9d9e0"/>
<ellipse cx="62" cy="778" rx="8" ry="6" fill="#fbe3b8" stroke="#c8964b"/>
<path d="M52 796 a10 8 0 0 1 20 0 z" fill="#fbe3b8" stroke="#c8964b"/>
<text x="82" y="780" fill="#8a5a20" font-size="10" font-weight="600" font-family="Geist, sans-serif" text-anchor="start">Ingeniero electrónico</text>
<rect x="670" y="764" width="348" height="44" rx="6" fill="#fbe3b8" stroke="#c8964b" stroke-width="1.2"/>
<text x="682" y="778" fill="#6f6f8c" font-size="7.5" font-weight="400" font-family="'Geist Mono', monospace" text-anchor="start">«performs, primary»</text>
<text x="682" y="790" fill="#8a5a20" font-size="9.5" font-weight="600" font-family="Geist, sans-serif" text-anchor="start">Traducir esquemas técnicos y disponer entornos SIL, HIL y</text>
<text x="682" y="802" fill="#8a5a20" font-size="9.5" font-weight="600" font-family="Geist, sans-serif" text-anchor="start">gemelos digitales</text>
<rect x="670" y="816" width="348" height="34" rx="6" fill="#ffffff" stroke="#c8964b" stroke-width="1" stroke-dasharray="4 3"/>
<text x="682" y="830" fill="#6f6f8c" font-size="7.5" font-weight="400" font-family="'Geist Mono', monospace" text-anchor="start">«assists»</text>
<text x="682" y="842" fill="#8a5a20" font-size="9.5" font-weight="400" font-family="Geist, sans-serif" text-anchor="start">Diseñar el modelo de arquitectura preliminar</text>
<rect x="670" y="858" width="348" height="44" rx="6" fill="#fbe3b8" stroke="#c8964b" stroke-width="1.2"/>
<text x="682" y="872" fill="#6f6f8c" font-size="7.5" font-weight="400" font-family="'Geist Mono', monospace" text-anchor="start">«performs, primary»</text>
<text x="682" y="884" fill="#8a5a20" font-size="9.5" font-weight="600" font-family="Geist, sans-serif" text-anchor="start">Planificar la estrategia de calibración de sensores y</text>
<text x="682" y="896" fill="#8a5a20" font-size="9.5" font-weight="600" font-family="Geist, sans-serif" text-anchor="start">actuadores</text>
<rect x="670" y="910" width="348" height="44" rx="6" fill="#fbe3b8" stroke="#c8964b" stroke-width="1.2"/>
<text x="682" y="924" fill="#6f6f8c" font-size="7.5" font-weight="400" font-family="'Geist Mono', monospace" text-anchor="start">«performs, primary»</text>
<text x="682" y="936" fill="#8a5a20" font-size="9.5" font-weight="600" font-family="Geist, sans-serif" text-anchor="start">Diseñar la electrónica de sensores, actuadores y enlace del</text>
<text x="682" y="948" fill="#8a5a20" font-size="9.5" font-weight="600" font-family="Geist, sans-serif" text-anchor="start">dron</text>
<rect x="1042" y="764" width="348" height="34" rx="6" fill="#ffffff" stroke="#c8964b" stroke-width="1" stroke-dasharray="4 3"/>
<text x="1054" y="778" fill="#6f6f8c" font-size="7.5" font-weight="400" font-family="'Geist Mono', monospace" text-anchor="start">«assists»</text>
<text x="1054" y="790" fill="#8a5a20" font-size="9.5" font-weight="400" font-family="Geist, sans-serif" text-anchor="start">Validar el prototipo en entorno simulado (SIL/HIL)</text>
<rect x="1042" y="806" width="348" height="34" rx="6" fill="#ffffff" stroke="#c8964b" stroke-width="1" stroke-dasharray="4 3"/>
<text x="1054" y="820" fill="#6f6f8c" font-size="7.5" font-weight="400" font-family="'Geist Mono', monospace" text-anchor="start">«assists»</text>
<text x="1054" y="832" fill="#8a5a20" font-size="9.5" font-weight="400" font-family="Geist, sans-serif" text-anchor="start">Integrar el hardware real en el banco HIL</text>
<rect x="1414" y="764" width="348" height="34" rx="6" fill="#ffffff" stroke="#c8964b" stroke-width="1" stroke-dasharray="4 3"/>
<text x="1426" y="778" fill="#6f6f8c" font-size="7.5" font-weight="400" font-family="'Geist Mono', monospace" text-anchor="start">«assists»</text>
<text x="1426" y="790" fill="#8a5a20" font-size="9.5" font-weight="400" font-family="Geist, sans-serif" text-anchor="start">Construcción en paralelo (contrato primero)</text>
<rect x="1414" y="806" width="348" height="34" rx="6" fill="#ffffff" stroke="#c8964b" stroke-width="1" stroke-dasharray="4 3"/>
<text x="1426" y="820" fill="#6f6f8c" font-size="7.5" font-weight="400" font-family="'Geist Mono', monospace" text-anchor="start">«assists»</text>
<text x="1426" y="832" fill="#8a5a20" font-size="9.5" font-weight="400" font-family="Geist, sans-serif" text-anchor="start">Verificación e integración continua</text>
<rect x="1414" y="848" width="348" height="34" rx="6" fill="#fbe3b8" stroke="#c8964b" stroke-width="1.2"/>
<text x="1426" y="862" fill="#6f6f8c" font-size="7.5" font-weight="400" font-family="'Geist Mono', monospace" text-anchor="start">«performs, primary»</text>
<text x="1426" y="874" fill="#8a5a20" font-size="9.5" font-weight="600" font-family="Geist, sans-serif" text-anchor="start">Despliegue en campo</text>
<rect x="48" y="962" width="1738" height="206" fill="#fbfaf7"/>
<line x1="48" y1="962" x2="1786" y2="962" stroke="#d9d9e0"/>
<ellipse cx="62" cy="984" rx="8" ry="6" fill="#fbe3b8" stroke="#c8964b"/>
<path d="M52 1002 a10 8 0 0 1 20 0 z" fill="#fbe3b8" stroke="#c8964b"/>
<text x="82" y="986" fill="#8a5a20" font-size="10" font-weight="600" font-family="Geist, sans-serif" text-anchor="start">Ingeniero mecatrónico</text>
<rect x="670" y="970" width="348" height="44" rx="6" fill="#fbe3b8" stroke="#c8964b" stroke-width="1.2"/>
<text x="682" y="984" fill="#6f6f8c" font-size="7.5" font-weight="400" font-family="'Geist Mono', monospace" text-anchor="start">«performs, primary»</text>
<text x="682" y="996" fill="#8a5a20" font-size="9.5" font-weight="600" font-family="Geist, sans-serif" text-anchor="start">Traducir esquemas técnicos y disponer entornos SIL, HIL y</text>
<text x="682" y="1008" fill="#8a5a20" font-size="9.5" font-weight="600" font-family="Geist, sans-serif" text-anchor="start">gemelos digitales</text>
<rect x="670" y="1022" width="348" height="34" rx="6" fill="#ffffff" stroke="#c8964b" stroke-width="1" stroke-dasharray="4 3"/>
<text x="682" y="1036" fill="#6f6f8c" font-size="7.5" font-weight="400" font-family="'Geist Mono', monospace" text-anchor="start">«assists»</text>
<text x="682" y="1048" fill="#8a5a20" font-size="9.5" font-weight="400" font-family="Geist, sans-serif" text-anchor="start">Diseñar el modelo de arquitectura preliminar</text>
<rect x="670" y="1064" width="348" height="44" rx="6" fill="#fbe3b8" stroke="#c8964b" stroke-width="1.2"/>
<text x="682" y="1078" fill="#6f6f8c" font-size="7.5" font-weight="400" font-family="'Geist Mono', monospace" text-anchor="start">«performs, primary»</text>
<text x="682" y="1090" fill="#8a5a20" font-size="9.5" font-weight="600" font-family="Geist, sans-serif" text-anchor="start">Planificar la estrategia de calibración de sensores y</text>
<text x="682" y="1102" fill="#8a5a20" font-size="9.5" font-weight="600" font-family="Geist, sans-serif" text-anchor="start">actuadores</text>
<rect x="670" y="1116" width="348" height="44" rx="6" fill="#ffffff" stroke="#c8964b" stroke-width="1" stroke-dasharray="4 3"/>
<text x="682" y="1130" fill="#6f6f8c" font-size="7.5" font-weight="400" font-family="'Geist Mono', monospace" text-anchor="start">«assists»</text>
<text x="682" y="1142" fill="#8a5a20" font-size="9.5" font-weight="400" font-family="Geist, sans-serif" text-anchor="start">Diseñar la electrónica de sensores, actuadores y enlace del</text>
<text x="682" y="1154" fill="#8a5a20" font-size="9.5" font-weight="400" font-family="Geist, sans-serif" text-anchor="start">dron</text>
<rect x="1042" y="970" width="348" height="34" rx="6" fill="#ffffff" stroke="#c8964b" stroke-width="1" stroke-dasharray="4 3"/>
<text x="1054" y="984" fill="#6f6f8c" font-size="7.5" font-weight="400" font-family="'Geist Mono', monospace" text-anchor="start">«assists»</text>
<text x="1054" y="996" fill="#8a5a20" font-size="9.5" font-weight="400" font-family="Geist, sans-serif" text-anchor="start">Validar el prototipo en entorno simulado (SIL/HIL)</text>
<rect x="1042" y="1012" width="348" height="34" rx="6" fill="#fbe3b8" stroke="#c8964b" stroke-width="1.2"/>
<text x="1054" y="1026" fill="#6f6f8c" font-size="7.5" font-weight="400" font-family="'Geist Mono', monospace" text-anchor="start">«performs, primary»</text>
<text x="1054" y="1038" fill="#8a5a20" font-size="9.5" font-weight="600" font-family="Geist, sans-serif" text-anchor="start">Integrar el hardware real en el banco HIL</text>
<rect x="1414" y="970" width="348" height="34" rx="6" fill="#ffffff" stroke="#c8964b" stroke-width="1" stroke-dasharray="4 3"/>
<text x="1426" y="984" fill="#6f6f8c" font-size="7.5" font-weight="400" font-family="'Geist Mono', monospace" text-anchor="start">«assists»</text>
<text x="1426" y="996" fill="#8a5a20" font-size="9.5" font-weight="400" font-family="Geist, sans-serif" text-anchor="start">Construcción en paralelo (contrato primero)</text>
<rect x="1414" y="1012" width="348" height="34" rx="6" fill="#ffffff" stroke="#c8964b" stroke-width="1" stroke-dasharray="4 3"/>
<text x="1426" y="1026" fill="#6f6f8c" font-size="7.5" font-weight="400" font-family="'Geist Mono', monospace" text-anchor="start">«assists»</text>
<text x="1426" y="1038" fill="#8a5a20" font-size="9.5" font-weight="400" font-family="Geist, sans-serif" text-anchor="start">Verificación e integración continua</text>
<rect x="1414" y="1054" width="348" height="34" rx="6" fill="#fbe3b8" stroke="#c8964b" stroke-width="1.2"/>
<text x="1426" y="1068" fill="#6f6f8c" font-size="7.5" font-weight="400" font-family="'Geist Mono', monospace" text-anchor="start">«performs, primary»</text>
<text x="1426" y="1080" fill="#8a5a20" font-size="9.5" font-weight="600" font-family="Geist, sans-serif" text-anchor="start">Despliegue en campo</text>
<line x1="48" y1="1168" x2="1786" y2="1168" stroke="#d9d9e0"/>
<ellipse cx="62" cy="1190" rx="8" ry="6" fill="#fbe3b8" stroke="#c8964b"/>
<path d="M52 1208 a10 8 0 0 1 20 0 z" fill="#fbe3b8" stroke="#c8964b"/>
<text x="82" y="1192" fill="#8a5a20" font-size="10" font-weight="600" font-family="Geist, sans-serif" text-anchor="start">QA de software</text>
<rect x="1042" y="1176" width="348" height="34" rx="6" fill="#fbe3b8" stroke="#c8964b" stroke-width="1.2"/>
<text x="1054" y="1190" fill="#6f6f8c" font-size="7.5" font-weight="400" font-family="'Geist Mono', monospace" text-anchor="start">«performs, primary»</text>
<text x="1054" y="1202" fill="#8a5a20" font-size="9.5" font-weight="600" font-family="Geist, sans-serif" text-anchor="start">Validar el prototipo en entorno simulado (SIL/HIL)</text>
<rect x="1042" y="1218" width="348" height="34" rx="6" fill="#ffffff" stroke="#c8964b" stroke-width="1" stroke-dasharray="4 3"/>
<text x="1054" y="1232" fill="#6f6f8c" font-size="7.5" font-weight="400" font-family="'Geist Mono', monospace" text-anchor="start">«assists»</text>
<text x="1054" y="1244" fill="#8a5a20" font-size="9.5" font-weight="400" font-family="Geist, sans-serif" text-anchor="start">Establecer el pipeline de CI/CD base</text>
<rect x="1042" y="1260" width="348" height="34" rx="6" fill="#ffffff" stroke="#c8964b" stroke-width="1" stroke-dasharray="4 3"/>
<text x="1054" y="1274" fill="#6f6f8c" font-size="7.5" font-weight="400" font-family="'Geist Mono', monospace" text-anchor="start">«assists»</text>
<text x="1054" y="1286" fill="#8a5a20" font-size="9.5" font-weight="400" font-family="Geist, sans-serif" text-anchor="start">Validar reglas de negocio y condiciones agronómicas</text>
<rect x="1414" y="1176" width="348" height="34" rx="6" fill="#fbe3b8" stroke="#c8964b" stroke-width="1.2"/>
<text x="1426" y="1190" fill="#6f6f8c" font-size="7.5" font-weight="400" font-family="'Geist Mono', monospace" text-anchor="start">«performs, primary»</text>
<text x="1426" y="1202" fill="#8a5a20" font-size="9.5" font-weight="600" font-family="Geist, sans-serif" text-anchor="start">Verificación e integración continua</text>
<rect x="1414" y="1218" width="348" height="34" rx="6" fill="#ffffff" stroke="#c8964b" stroke-width="1" stroke-dasharray="4 3"/>
<text x="1426" y="1232" fill="#6f6f8c" font-size="7.5" font-weight="400" font-family="'Geist Mono', monospace" text-anchor="start">«assists»</text>
<text x="1426" y="1244" fill="#8a5a20" font-size="9.5" font-weight="400" font-family="Geist, sans-serif" text-anchor="start">Auditoría de cumplimiento de las especificaciones</text>
<rect x="1414" y="1260" width="348" height="34" rx="6" fill="#ffffff" stroke="#c8964b" stroke-width="1" stroke-dasharray="4 3"/>
<text x="1426" y="1274" fill="#6f6f8c" font-size="7.5" font-weight="400" font-family="'Geist Mono', monospace" text-anchor="start">«assists»</text>
<text x="1426" y="1286" fill="#8a5a20" font-size="9.5" font-weight="400" font-family="Geist, sans-serif" text-anchor="start">Review del incremento con el caficultor</text>
<line x1="48" y1="1302" x2="1786" y2="1302" stroke="#d9d9e0"/>
<rect x="48" y="1302" width="1738" height="372" fill="#faf7f0"/>
<line x1="48" y1="1302" x2="1786" y2="1302" stroke="#c8964b"/>
<text x="48" y="1326" fill="#6f6f8c" font-size="8" font-weight="400" font-family="'Geist Mono', monospace" text-anchor="start" letter-spacing="0.14em">PRODUCTOS DE TRABAJO</text>
<text x="48" y="1342" fill="#6f6f8c" font-size="9" font-weight="400" font-family="Geist, sans-serif" text-anchor="start">Lo que cada Fase deja construido.</text>
<path d="M301 1313 h13 l7 7 v19 h-20 z" fill="#fbe3b8" stroke="#c8964b"/>
<path d="M314 1313 v7 h7" fill="none" stroke="#c8964b"/><line x1="304" y1="1324" x2="318" y2="1324" stroke="#4a72c4" stroke-width="1.4"/><line x1="304" y1="1327" x2="318" y2="1327" stroke="#4a72c4" stroke-width="1.4"/><line x1="304" y1="1330" x2="318" y2="1330" stroke="#4a72c4" stroke-width="1.4"/><line x1="304" y1="1333" x2="318" y2="1333" stroke="#4a72c4" stroke-width="1.4"/><line x1="304" y1="1336" x2="318" y2="1336" stroke="#4a72c4" stroke-width="1.4"/>
<text x="330" y="1330" fill="#8a5a20" font-size="9" font-weight="400" font-family="Geist, sans-serif" text-anchor="start">Constitution.md</text>
<path d="M302 1375 v-8 h6 v-6 h6 v-8 h7 v22 z" fill="#9dc6ef" stroke="#4a72c4"/>
<text x="330" y="1366" fill="#8a5a20" font-size="9" font-weight="400" font-family="Geist, sans-serif" text-anchor="start">Políticas y límites de operación</text>
<path d="M302 1411 v-8 h6 v-6 h6 v-8 h7 v22 z" fill="#9dc6ef" stroke="#4a72c4"/>
<text x="330" y="1402" fill="#8a5a20" font-size="9" font-weight="400" font-family="Geist, sans-serif" text-anchor="start">Reglas de negocio</text>
<path d="M301 1421 h13 l7 7 v19 h-20 z" fill="#fbe3b8" stroke="#c8964b"/>
<path d="M314 1421 v7 h7" fill="none" stroke="#c8964b"/><line x1="304" y1="1432" x2="318" y2="1432" stroke="#4a72c4" stroke-width="1.4"/><line x1="304" y1="1435" x2="318" y2="1435" stroke="#4a72c4" stroke-width="1.4"/><line x1="304" y1="1438" x2="318" y2="1438" stroke="#4a72c4" stroke-width="1.4"/><line x1="304" y1="1441" x2="318" y2="1441" stroke="#4a72c4" stroke-width="1.4"/><line x1="304" y1="1444" x2="318" y2="1444" stroke="#4a72c4" stroke-width="1.4"/>
<text x="330" y="1438" fill="#8a5a20" font-size="9" font-weight="400" font-family="Geist, sans-serif" text-anchor="start">Contratos globales</text>
<path d="M301 1457 h13 l7 7 v19 h-20 z" fill="#fbe3b8" stroke="#c8964b"/>
<path d="M314 1457 v7 h7" fill="none" stroke="#c8964b"/><line x1="304" y1="1468" x2="318" y2="1468" stroke="#4a72c4" stroke-width="1.4"/><line x1="304" y1="1471" x2="318" y2="1471" stroke="#4a72c4" stroke-width="1.4"/><line x1="304" y1="1474" x2="318" y2="1474" stroke="#4a72c4" stroke-width="1.4"/><line x1="304" y1="1477" x2="318" y2="1477" stroke="#4a72c4" stroke-width="1.4"/><line x1="304" y1="1480" x2="318" y2="1480" stroke="#4a72c4" stroke-width="1.4"/>
<text x="330" y="1474" fill="#8a5a20" font-size="9" font-weight="400" font-family="Geist, sans-serif" text-anchor="start">Contratos de integración entre dominios</text>
<path d="M673 1313 h13 l7 7 v19 h-20 z" fill="#fbe3b8" stroke="#c8964b"/>
<path d="M686 1313 v7 h7" fill="none" stroke="#c8964b"/><line x1="676" y1="1324" x2="690" y2="1324" stroke="#4a72c4" stroke-width="1.4"/><line x1="676" y1="1327" x2="690" y2="1327" stroke="#4a72c4" stroke-width="1.4"/><line x1="676" y1="1330" x2="690" y2="1330" stroke="#4a72c4" stroke-width="1.4"/><line x1="676" y1="1333" x2="690" y2="1333" stroke="#4a72c4" stroke-width="1.4"/><line x1="676" y1="1336" x2="690" y2="1336" stroke="#4a72c4" stroke-width="1.4"/>
<text x="702" y="1330" fill="#8a5a20" font-size="9" font-weight="400" font-family="Geist, sans-serif" text-anchor="start">spec.md, plan.md, task.md</text>
<path d="M690 1353 a6 6 0 0 0 -7.4 9.2 l-7.2 7.2 a2.4 2.4 0 0 0 3.4 3.4 l7.2 -7.2 a6 6 0 0 0 9.2 -7.4 l-4 4 -3.4-0.9 -0.9-3.4 z" transform="scale(0.82) translate(147.4, 296.78000000000003)" fill="#fbe3b8" stroke="#c8964b"/>
<text x="702" y="1366" fill="#8a5a20" font-size="9" font-weight="400" font-family="Geist, sans-serif" text-anchor="start">Entornos de simulación SIL y HIL configurados</text>
<path d="M673 1385 h13 l7 7 v19 h-20 z" fill="#fbe3b8" stroke="#c8964b"/>
<path d="M686 1385 v7 h7" fill="none" stroke="#c8964b"/><line x1="676" y1="1396" x2="690" y2="1396" stroke="#4a72c4" stroke-width="1.4"/><line x1="676" y1="1399" x2="690" y2="1399" stroke="#4a72c4" stroke-width="1.4"/><line x1="676" y1="1402" x2="690" y2="1402" stroke="#4a72c4" stroke-width="1.4"/><line x1="676" y1="1405" x2="690" y2="1405" stroke="#4a72c4" stroke-width="1.4"/><line x1="676" y1="1408" x2="690" y2="1408" stroke="#4a72c4" stroke-width="1.4"/>
<text x="702" y="1402" fill="#8a5a20" font-size="9" font-weight="400" font-family="Geist, sans-serif" text-anchor="start">Modelo de arquitectura del sistema</text>
<path d="M673 1421 h13 l7 7 v19 h-20 z" fill="#fbe3b8" stroke="#c8964b"/>
<path d="M686 1421 v7 h7" fill="none" stroke="#c8964b"/><line x1="676" y1="1432" x2="690" y2="1432" stroke="#4a72c4" stroke-width="1.4"/><line x1="676" y1="1435" x2="690" y2="1435" stroke="#4a72c4" stroke-width="1.4"/><line x1="676" y1="1438" x2="690" y2="1438" stroke="#4a72c4" stroke-width="1.4"/><line x1="676" y1="1441" x2="690" y2="1441" stroke="#4a72c4" stroke-width="1.4"/><line x1="676" y1="1444" x2="690" y2="1444" stroke="#4a72c4" stroke-width="1.4"/>
<text x="702" y="1438" fill="#8a5a20" font-size="9" font-weight="400" font-family="Geist, sans-serif" text-anchor="start">Especificaciones de la lógica de adaptación</text>
<path d="M673 1457 h13 l7 7 v19 h-20 z" fill="#fbe3b8" stroke="#c8964b"/>
<path d="M686 1457 v7 h7" fill="none" stroke="#c8964b"/><line x1="676" y1="1468" x2="690" y2="1468" stroke="#4a72c4" stroke-width="1.4"/><line x1="676" y1="1471" x2="690" y2="1471" stroke="#4a72c4" stroke-width="1.4"/><line x1="676" y1="1474" x2="690" y2="1474" stroke="#4a72c4" stroke-width="1.4"/><line x1="676" y1="1477" x2="690" y2="1477" stroke="#4a72c4" stroke-width="1.4"/><line x1="676" y1="1480" x2="690" y2="1480" stroke="#4a72c4" stroke-width="1.4"/>
<text x="702" y="1474" fill="#8a5a20" font-size="9" font-weight="400" font-family="Geist, sans-serif" text-anchor="start">Esquemáticos y lista de materiales</text>
<path d="M690 1497 a6 6 0 0 0 -7.4 9.2 l-7.2 7.2 a2.4 2.4 0 0 0 3.4 3.4 l7.2 -7.2 a6 6 0 0 0 9.2 -7.4 l-4 4 -3.4-0.9 -0.9-3.4 z" transform="scale(0.82) translate(147.4, 328.46)" fill="#fbe3b8" stroke="#c8964b"/>
<text x="702" y="1510" fill="#8a5a20" font-size="9" font-weight="400" font-family="Geist, sans-serif" text-anchor="start">Banco de pruebas de hardware</text>
<path d="M1045 1313 h13 l7 7 v19 h-20 z" fill="#fbe3b8" stroke="#c8964b"/>
<path d="M1058 1313 v7 h7" fill="none" stroke="#c8964b"/><line x1="1048" y1="1324" x2="1062" y2="1324" stroke="#4a72c4" stroke-width="1.4"/><line x1="1048" y1="1327" x2="1062" y2="1327" stroke="#4a72c4" stroke-width="1.4"/><line x1="1048" y1="1330" x2="1062" y2="1330" stroke="#4a72c4" stroke-width="1.4"/><line x1="1048" y1="1333" x2="1062" y2="1333" stroke="#4a72c4" stroke-width="1.4"/><line x1="1048" y1="1336" x2="1062" y2="1336" stroke="#4a72c4" stroke-width="1.4"/>
<text x="1074" y="1330" fill="#8a5a20" font-size="9" font-weight="400" font-family="Geist, sans-serif" text-anchor="start">Prototipo vertical funcional</text>
<path d="M1045 1349 h13 l7 7 v19 h-20 z" fill="#fbe3b8" stroke="#c8964b"/>
<path d="M1058 1349 v7 h7" fill="none" stroke="#c8964b"/><line x1="1048" y1="1360" x2="1062" y2="1360" stroke="#4a72c4" stroke-width="1.4"/><line x1="1048" y1="1363" x2="1062" y2="1363" stroke="#4a72c4" stroke-width="1.4"/><line x1="1048" y1="1366" x2="1062" y2="1366" stroke="#4a72c4" stroke-width="1.4"/><line x1="1048" y1="1369" x2="1062" y2="1369" stroke="#4a72c4" stroke-width="1.4"/><line x1="1048" y1="1372" x2="1062" y2="1372" stroke="#4a72c4" stroke-width="1.4"/>
<text x="1074" y="1366" fill="#8a5a20" font-size="9" font-weight="400" font-family="Geist, sans-serif" text-anchor="start">Informes de validación de control</text>
<path d="M1062 1389 a6 6 0 0 0 -7.4 9.2 l-7.2 7.2 a2.4 2.4 0 0 0 3.4 3.4 l7.2 -7.2 a6 6 0 0 0 9.2 -7.4 l-4 4 -3.4-0.9 -0.9-3.4 z" transform="scale(0.82) translate(229.24, 304.7)" fill="#fbe3b8" stroke="#c8964b"/>
<text x="1074" y="1402" fill="#8a5a20" font-size="9" font-weight="400" font-family="Geist, sans-serif" text-anchor="start">Pipeline de CI/CD base</text>
<path d="M1062 1425 a6 6 0 0 0 -7.4 9.2 l-7.2 7.2 a2.4 2.4 0 0 0 3.4 3.4 l7.2 -7.2 a6 6 0 0 0 9.2 -7.4 l-4 4 -3.4-0.9 -0.9-3.4 z" transform="scale(0.82) translate(229.24, 312.62)" fill="#fbe3b8" stroke="#c8964b"/>
<text x="1074" y="1438" fill="#8a5a20" font-size="9" font-weight="400" font-family="Geist, sans-serif" text-anchor="start">Banco HIL con hardware real</text>
<path d="M1417 1313 h13 l7 7 v19 h-20 z" fill="#fbe3b8" stroke="#c8964b"/>
<path d="M1430 1313 v7 h7" fill="none" stroke="#c8964b"/><line x1="1420" y1="1324" x2="1434" y2="1324" stroke="#4a72c4" stroke-width="1.4"/><line x1="1420" y1="1327" x2="1434" y2="1327" stroke="#4a72c4" stroke-width="1.4"/><line x1="1420" y1="1330" x2="1434" y2="1330" stroke="#4a72c4" stroke-width="1.4"/><line x1="1420" y1="1333" x2="1434" y2="1333" stroke="#4a72c4" stroke-width="1.4"/><line x1="1420" y1="1336" x2="1434" y2="1336" stroke="#4a72c4" stroke-width="1.4"/>
<text x="1446" y="1330" fill="#8a5a20" font-size="9" font-weight="400" font-family="Geist, sans-serif" text-anchor="start">Código fuente</text>
<path d="M1417 1349 h13 l7 7 v19 h-20 z" fill="#fbe3b8" stroke="#c8964b"/>
<path d="M1430 1349 v7 h7" fill="none" stroke="#c8964b"/><line x1="1420" y1="1360" x2="1434" y2="1360" stroke="#4a72c4" stroke-width="1.4"/><line x1="1420" y1="1363" x2="1434" y2="1363" stroke="#4a72c4" stroke-width="1.4"/><line x1="1420" y1="1366" x2="1434" y2="1366" stroke="#4a72c4" stroke-width="1.4"/><line x1="1420" y1="1369" x2="1434" y2="1369" stroke="#4a72c4" stroke-width="1.4"/><line x1="1420" y1="1372" x2="1434" y2="1372" stroke="#4a72c4" stroke-width="1.4"/>
<text x="1446" y="1366" fill="#8a5a20" font-size="9" font-weight="400" font-family="Geist, sans-serif" text-anchor="start">Archivos spec.md / task.md</text>
<path d="M1434 1389 a6 6 0 0 0 -7.4 9.2 l-7.2 7.2 a2.4 2.4 0 0 0 3.4 3.4 l7.2 -7.2 a6 6 0 0 0 9.2 -7.4 l-4 4 -3.4-0.9 -0.9-3.4 z" transform="scale(0.82) translate(311.08, 304.7)" fill="#fbe3b8" stroke="#c8964b"/>
<text x="1446" y="1402" fill="#8a5a20" font-size="9" font-weight="400" font-family="Geist, sans-serif" text-anchor="start">Pipeline de CI/CD ejecutado</text>
<path d="M1434 1425 a6 6 0 0 0 -7.4 9.2 l-7.2 7.2 a2.4 2.4 0 0 0 3.4 3.4 l7.2 -7.2 a6 6 0 0 0 9.2 -7.4 l-4 4 -3.4-0.9 -0.9-3.4 z" transform="scale(0.82) translate(311.08, 312.62)" fill="#fbe3b8" stroke="#c8964b"/>
<text x="1446" y="1438" fill="#8a5a20" font-size="9" font-weight="400" font-family="Geist, sans-serif" text-anchor="start">Entornos SIL/HIL validados</text>
<path d="M1417 1457 h13 l7 7 v19 h-20 z" fill="#fbe3b8" stroke="#c8964b"/>
<path d="M1430 1457 v7 h7" fill="none" stroke="#c8964b"/><line x1="1420" y1="1468" x2="1434" y2="1468" stroke="#4a72c4" stroke-width="1.4"/><line x1="1420" y1="1471" x2="1434" y2="1471" stroke="#4a72c4" stroke-width="1.4"/><line x1="1420" y1="1474" x2="1434" y2="1474" stroke="#4a72c4" stroke-width="1.4"/><line x1="1420" y1="1477" x2="1434" y2="1477" stroke="#4a72c4" stroke-width="1.4"/><line x1="1420" y1="1480" x2="1434" y2="1480" stroke="#4a72c4" stroke-width="1.4"/>
<text x="1446" y="1474" fill="#8a5a20" font-size="9" font-weight="400" font-family="Geist, sans-serif" text-anchor="start">Paquete de calibración de sensores y actuadores</text>
<path d="M1417 1493 h13 l7 7 v19 h-20 z" fill="#fbe3b8" stroke="#c8964b"/>
<path d="M1430 1493 v7 h7" fill="none" stroke="#c8964b"/><line x1="1420" y1="1504" x2="1434" y2="1504" stroke="#4a72c4" stroke-width="1.4"/><line x1="1420" y1="1507" x2="1434" y2="1507" stroke="#4a72c4" stroke-width="1.4"/><line x1="1420" y1="1510" x2="1434" y2="1510" stroke="#4a72c4" stroke-width="1.4"/><line x1="1420" y1="1513" x2="1434" y2="1513" stroke="#4a72c4" stroke-width="1.4"/><line x1="1420" y1="1516" x2="1434" y2="1516" stroke="#4a72c4" stroke-width="1.4"/>
<text x="1446" y="1510" fill="#8a5a20" font-size="9" font-weight="400" font-family="Geist, sans-serif" text-anchor="start">Red de sensores instalada</text>
<path d="M1417 1529 h13 l7 7 v19 h-20 z" fill="#fbe3b8" stroke="#c8964b"/>
<path d="M1430 1529 v7 h7" fill="none" stroke="#c8964b"/><line x1="1420" y1="1540" x2="1434" y2="1540" stroke="#4a72c4" stroke-width="1.4"/><line x1="1420" y1="1543" x2="1434" y2="1543" stroke="#4a72c4" stroke-width="1.4"/><line x1="1420" y1="1546" x2="1434" y2="1546" stroke="#4a72c4" stroke-width="1.4"/><line x1="1420" y1="1549" x2="1434" y2="1549" stroke="#4a72c4" stroke-width="1.4"/><line x1="1420" y1="1552" x2="1434" y2="1552" stroke="#4a72c4" stroke-width="1.4"/>
<text x="1446" y="1546" fill="#8a5a20" font-size="9" font-weight="400" font-family="Geist, sans-serif" text-anchor="start">Firmware de sensores y actuadores</text>
<path d="M1417 1565 h13 l7 7 v19 h-20 z" fill="#fbe3b8" stroke="#c8964b"/>
<path d="M1430 1565 v7 h7" fill="none" stroke="#c8964b"/><line x1="1420" y1="1576" x2="1434" y2="1576" stroke="#4a72c4" stroke-width="1.4"/><line x1="1420" y1="1579" x2="1434" y2="1579" stroke="#4a72c4" stroke-width="1.4"/><line x1="1420" y1="1582" x2="1434" y2="1582" stroke="#4a72c4" stroke-width="1.4"/><line x1="1420" y1="1585" x2="1434" y2="1585" stroke="#4a72c4" stroke-width="1.4"/><line x1="1420" y1="1588" x2="1434" y2="1588" stroke="#4a72c4" stroke-width="1.4"/>
<text x="1446" y="1582" fill="#8a5a20" font-size="9" font-weight="400" font-family="Geist, sans-serif" text-anchor="start">Releases de software</text>
<path d="M1418 1627 v-8 h6 v-6 h6 v-8 h7 v22 z" fill="#9dc6ef" stroke="#4a72c4"/>
<text x="1446" y="1618" fill="#8a5a20" font-size="9" font-weight="400" font-family="Geist, sans-serif" text-anchor="start">Manual de operación actualizado</text>
<path d="M1417 1637 h13 l7 7 v19 h-20 z" fill="#fbe3b8" stroke="#c8964b"/>
<path d="M1430 1637 v7 h7" fill="none" stroke="#c8964b"/><line x1="1420" y1="1648" x2="1434" y2="1648" stroke="#4a72c4" stroke-width="1.4"/><line x1="1420" y1="1651" x2="1434" y2="1651" stroke="#4a72c4" stroke-width="1.4"/><line x1="1420" y1="1654" x2="1434" y2="1654" stroke="#4a72c4" stroke-width="1.4"/><line x1="1420" y1="1657" x2="1434" y2="1657" stroke="#4a72c4" stroke-width="1.4"/><line x1="1420" y1="1660" x2="1434" y2="1660" stroke="#4a72c4" stroke-width="1.4"/>
<text x="1446" y="1654" fill="#8a5a20" font-size="9" font-weight="400" font-family="Geist, sans-serif" text-anchor="start">Lecciones y ajustes al backlog</text>
<line x1="48" y1="1674" x2="1786" y2="1674" stroke="#d9d9e0"/>
<line x1="662" y1="146" x2="662" y2="1674" stroke="#d9d9e0"/>
<line x1="1034" y1="146" x2="1034" y2="1674" stroke="#d9d9e0"/>
<line x1="1406" y1="146" x2="1406" y2="1674" stroke="#d9d9e0"/>
<line x1="286" y1="146" x2="286" y2="1674" stroke="#d9d9e0"/>
<line x1="48" y1="1704" x2="1786" y2="1704" stroke="#d9d9e0"/>
<text x="48" y="1726" fill="#6f6f8c" font-size="8" font-weight="400" font-family="'Geist Mono', monospace" text-anchor="start" letter-spacing="0.14em">LEYENDA SPEM 2.0</text>
<rect x="248" y="1714" width="26" height="16" rx="4" fill="#fbe3b8" stroke="#c8964b" stroke-width="1.2"/>
<text x="284" y="1727" fill="#6f6f8c" font-size="9" font-weight="400" font-family="Geist, sans-serif" text-anchor="start">«performs, primary» — el Rol ejecuta la Tarea</text>
<rect x="608" y="1714" width="26" height="16" rx="4" fill="#ffffff" stroke="#c8964b" stroke-dasharray="4 3"/>
<text x="644" y="1727" fill="#6f6f8c" font-size="9" font-weight="400" font-family="Geist, sans-serif" text-anchor="start">«assists» — el Rol asiste en la Tarea</text>
<text x="948" y="1727" fill="#6f6f8c" font-size="9" font-weight="400" font-family="Geist, sans-serif" text-anchor="start">Una Tarea aparece en tantos carriles como Roles la tocan; su columna dice en qué Fase ocurre.</text>
<path d="M251 1742 h13 l7 7 v19 h-20 z" fill="#fbe3b8" stroke="#c8964b"/>
<path d="M264 1742 v7 h7" fill="none" stroke="#c8964b"/><line x1="254" y1="1753" x2="268" y2="1753" stroke="#4a72c4" stroke-width="1.4"/><line x1="254" y1="1756" x2="268" y2="1756" stroke="#4a72c4" stroke-width="1.4"/><line x1="254" y1="1759" x2="268" y2="1759" stroke="#4a72c4" stroke-width="1.4"/><line x1="254" y1="1762" x2="268" y2="1762" stroke="#4a72c4" stroke-width="1.4"/><line x1="254" y1="1765" x2="268" y2="1765" stroke="#4a72c4" stroke-width="1.4"/>
<text x="282" y="1759" fill="#6f6f8c" font-size="9" font-weight="400" font-family="Geist, sans-serif" text-anchor="start">Producto de Trabajo</text>
<path d="M612 1768 v-8 h6 v-6 h6 v-8 h7 v22 z" fill="#9dc6ef" stroke="#4a72c4"/>
<text x="642" y="1759" fill="#6f6f8c" font-size="9" font-weight="400" font-family="Geist, sans-serif" text-anchor="start">Guía / Métrica</text>
<path d="M988 1746 a6 6 0 0 0 -7.4 9.2 l-7.2 7.2 a2.4 2.4 0 0 0 3.4 3.4 l7.2 -7.2 a6 6 0 0 0 9.2 -7.4 l-4 4 -3.4-0.9 -0.9-3.4 z" transform="scale(0.82) translate(212.96, 383.24)" fill="#fbe3b8" stroke="#c8964b"/>
<text x="1002" y="1759" fill="#6f6f8c" font-size="9" font-weight="400" font-family="Geist, sans-serif" text-anchor="start">Herramienta</text>
</svg>